# xmcd
#
# Track frame offsets:
#	150
#	16216
#	33366
#	50381
#	68925
#	95512
#	113653
#	134632
#	164580
#	197145
#	215315
#	232971
#	251878
#	278157
#	296982
#	327829
#
# Disc length: 4734 seconds
#
# Revision: 1
# Processed by: cddbd v1.5.2PL0 Copyright (c) Steve Scherf et al.
# Submitted via: audiograbber 1.83.01
#
DISCID=f2127c10
DTITLE=Various Artist - FTG Presents The Vault Volume 3 [CD2]
DYEAR=2017
DGENRE=Funk
TTITLE0=Gladys Knight and The Pips - Bourgie Bourgie (Single Version)
TTITLE1=Breakwater - Say You Love Me Girl (Single Version)
TTITLE2=Funkin' For Jamaica (Single Version) - Funkin' For Jamaica (Single Vers
TTITLE2=ion)
TTITLE3=Earth, Wind and Fire - Lets Groove (Single Version)
TTITLE4=Evelyn King - I'm In Love (12" Version)
TTITLE5=Cheryl Lynn - In The Night
TTITLE6=Billy Ocean - Don't Say Stop (Remastered)
TTITLE7=Tavares - Got To Find My Way Back To You (12" Dance Mix)
TTITLE8=Delegation - It's Your Turn (12" Extended)
TTITLE9=Instant Love (Single Version) - Instant Love (Single Version)
TTITLE10=Kenny G - Hi How Ya Doing (7" Version)
TTITLE11=Baby Don't Break Your Baby's Heart (Single Version) - Baby Don't Break
TTITLE11=Your Baby's Heart (Single Version)
TTITLE12=Teena Marie - Lovergirl (12" Us Mix)
TTITLE13=Secret Rendevous (US Single Edit) - Secret Rendevous (US Single Edit)
TTITLE14=Billy Ocean - Mystery Lady (Exended Mix)
TTITLE15=Denice Williams - Let's Hear It For The Boy (Extended Mix)
EXTD=
EXTT0=
EXTT1=
EXTT2=
EXTT3=
EXTT4=
EXTT5=
EXTT6=
EXTT7=
EXTT8=
EXTT9=
EXTT10=
EXTT11=
EXTT12=
EXTT13=
EXTT14=
EXTT15=
PLAYORDER=
